<?xml version="1.0" standalone="no"?>
<!DOCTYPE svg PUBLIC "-//W3C//DTD SVG 20010904//EN"
 "http://www.w3.org/TR/2001/REC-SVG-20010904/DTD/svg10.dtd">
<svg version="1.0" xmlns="http://www.w3.org/2000/svg"
 width="2000.000000pt" height="1500.000000pt" viewBox="0 0 2000.000000 1500.000000"
 preserveAspectRatio="xMidYMid meet">

<g transform="translate(0.000000,1500.000000) scale(0.100000,-0.100000)"
fill="#0e294b" stroke="none">
<path d="M9665 12119 c-985 -74 -1898 -449 -2665 -1093 -210 -177 -468 -446
-651 -681 -161 -206 -357 -513 -464 -725 l-35 -70 124 0 125 0 37 68 c128 232
251 424 387 602 1143 1494 3108 2091 4886 1485 1027 -350 1889 -1070 2415
-2015 l75 -135 126 -3 126 -3 -36 71 c-55 109 -200 354 -277 467 -341 502
-777 937 -1264 1261 -684 455 -1442 714 -2259 772 -162 11 -491 11 -650 -1z"/>
<path d="M6888 8885 c-3 -3 -165 -6 -360 -5 -402 0 -534 -11 -683 -61 -244
-81 -402 -250 -451 -480 -24 -112 -22 -277 5 -373 45 -163 164 -336 231 -336
78 0 161 155 96 179 -52 20 -124 138 -145 239 -35 166 17 369 121 472 84 84
221 139 387 156 l71 7 0 -407 0 -406 -105 0 c-104 0 -105 0 -111 -25 -8 -33
21 -110 49 -130 14 -10 46 -15 94 -15 l73 0 0 -225 c0 -123 -5 -247 -11 -275
-11 -53 -35 -76 -71 -67 -54 15 -10 -79 60 -126 52 -35 76 -40 117 -23 28 12
41 27 63 73 l27 58 3 292 3 292 151 3 151 3 20 27 c13 18 22 48 25 85 l4 58
-173 0 -174 0 0 405 0 405 262 0 261 0 26 24 c35 33 50 90 36 141 -7 28 -16
40 -29 40 -10 0 -20 -2 -23 -5z"/>
<path d="M14407 8873 c-16 -4 -18 -10 -11 -36 4 -18 10 -327 13 -688 6 -638 7
-658 26 -679 31 -34 73 -52 106 -45 61 14 59 -15 59 720 l0 672 -22 21 c-40
37 -109 51 -171 35z"/>
<path d="M11616 8836 c-52 -19 -110 -78 -138 -140 -23 -51 -23 -52 -28 -616
-5 -509 -7 -569 -23 -610 -44 -112 -120 -196 -198 -219 -57 -17 -147 -16 -190
2 -97 40 -149 128 -157 268 -13 236 99 464 207 420 34 -15 49 -41 65 -113 11
-46 16 -53 39 -56 40 -5 93 25 111 63 32 66 -20 191 -100 245 -33 22 -48 25
-123 25 -103 0 -137 -14 -221 -92 -113 -105 -180 -280 -180 -474 l0 -107 -50
-99 c-27 -54 -72 -127 -100 -162 l-50 -65 0 453 0 453 -33 33 c-40 40 -99 55
-135 34 l-24 -14 -2 -280 c-2 -280 -2 -280 -29 -357 -62 -169 -158 -238 -234
-166 -38 36 -48 83 -46 223 1 143 21 278 60 412 13 49 27 105 30 125 5 34 2
39 -23 48 -44 17 -120 3 -143 -26 -33 -42 -95 -323 -111 -508 -11 -122 -28
-163 -93 -224 -60 -55 -108 -73 -188 -74 -111 -1 -184 47 -233 152 -18 39 -21
63 -20 170 1 106 5 137 27 205 31 94 66 149 108 171 65 33 121 -10 135 -106 4
-25 12 -48 18 -52 36 -24 115 12 136 62 26 62 -27 184 -101 236 -39 27 -49 29
-128 29 -106 0 -143 -16 -227 -100 -110 -109 -174 -281 -174 -469 0 -93 -2
-105 -29 -152 -34 -58 -89 -110 -140 -131 -48 -20 -156 -20 -206 1 -46 20 -90
59 -112 100 -16 32 -12 39 35 54 17 6 57 27 86 47 139 92 226 248 226 404 0
91 -22 152 -71 196 -51 46 -76 55 -149 55 -146 0 -276 -122 -346 -325 -24 -70
-28 -97 -30 -218 -2 -127 -5 -141 -28 -180 -33 -57 -92 -112 -140 -132 -62
-26 -164 -23 -223 6 -41 21 -113 95 -113 117 0 4 31 22 70 40 43 20 94 56 135
93 182 170 213 461 62 566 -32 22 -54 28 -109 31 -61 4 -76 1 -133 -27 -79
-39 -142 -108 -190 -205 -54 -110 -67 -173 -70 -331 -2 -121 -5 -147 -25 -193
-46 -107 -138 -147 -200 -86 -22 22 -25 34 -28 112 -5 108 15 227 70 429 l41
153 -27 40 c-45 69 -74 80 -206 81 -63 0 -123 4 -133 8 -10 3 -28 24 -40 46
-43 76 -127 106 -197 70 -41 -21 -60 -53 -60 -103 0 -54 20 -93 66 -129 l37
-28 -7 -140 c-3 -77 -13 -181 -22 -232 -17 -103 -9 -136 39 -162 43 -23 73 -8
91 46 23 72 46 215 53 336 l6 107 108 0 108 0 -30 -87 c-67 -199 -83 -278 -83
-428 -1 -152 6 -177 63 -238 47 -52 98 -72 181 -72 60 0 85 5 123 25 45 23
102 75 139 128 l16 23 50 -50 c172 -172 477 -171 638 1 l49 53 55 -56 c100
-101 230 -143 376 -122 97 14 206 67 261 126 l41 44 47 -49 c130 -134 346
-165 529 -75 39 20 82 47 95 61 l24 25 27 -38 c49 -66 115 -101 195 -101 83 0
143 33 206 112 l39 50 0 -153 0 -152 -103 -101 c-88 -86 -110 -114 -145 -186
-71 -145 -78 -269 -21 -387 41 -85 98 -126 185 -131 34 -2 79 1 100 8 54 18
117 86 145 156 22 56 23 74 27 334 l4 274 92 97 c51 53 114 130 140 172 l48
76 48 -47 c163 -160 452 -160 625 -1 l44 40 15 -29 c43 -84 158 -139 268 -129
71 6 128 33 193 90 l49 44 27 -42 c70 -110 218 -125 337 -35 l52 39 6 -23 c16
-64 120 -100 163 -57 20 20 21 30 21 241 0 120 5 243 11 272 29 141 167 348
232 348 49 0 52 -17 57 -390 5 -376 5 -373 67 -432 87 -83 220 -75 325 21 l53
49 42 -37 c49 -44 99 -61 180 -61 66 0 109 14 163 55 l35 26 3 -124 3 -125
-110 -108 c-90 -89 -116 -122 -145 -183 -45 -93 -60 -165 -54 -261 10 -156
102 -260 233 -260 102 0 176 50 224 150 26 55 26 57 29 338 l3 283 83 83 c130
129 237 307 278 460 11 42 10 51 -7 84 -11 20 -33 43 -48 52 -27 14 -29 14
-52 -12 -12 -15 -33 -57 -45 -95 -29 -90 -97 -218 -157 -295 l-48 -63 -3 362
-2 361 -35 31 c-30 26 -44 31 -85 31 -28 0 -52 -5 -56 -12 -5 -7 -8 -105 -9
-218 0 -191 -2 -209 -23 -263 -13 -32 -41 -76 -61 -98 -32 -32 -44 -39 -77
-39 -21 0 -53 9 -71 20 -48 29 -66 72 -71 170 -10 221 89 415 252 495 48 23
77 30 155 34 l96 6 3 34 c5 48 -15 87 -53 105 -41 20 -80 20 -168 1 -182 -38
-327 -157 -412 -338 -48 -99 -66 -195 -64 -334 1 -108 0 -116 -26 -154 -15
-23 -41 -47 -62 -55 -31 -13 -38 -13 -59 1 -13 8 -26 25 -29 38 -2 12 -6 166
-7 342 l-3 320 -30 60 c-38 76 -84 105 -167 105 -31 0 -69 -5 -84 -10 -49 -19
-103 -71 -154 -148 l-50 -76 0 61 c0 100 -29 138 -112 149 -81 11 -79 18 -81
-311 -2 -288 -2 -291 -30 -371 -29 -87 -85 -162 -122 -165 -84 -6 -85 1 -85
415 0 364 -2 382 -46 411 -35 23 -105 30 -128 13 -17 -14 -18 -32 -17 -295 2
-260 1 -285 -19 -339 -43 -125 -123 -205 -204 -206 -90 -2 -124 49 -133 198
l-6 92 46 93 c86 178 167 433 202 633 18 103 20 297 4 381 -15 82 -52 150 -97
179 -48 32 -115 40 -166 22z m99 -201 c41 -84 18 -418 -46 -658 -12 -42 -25
-80 -31 -83 -16 -10 -6 736 10 764 19 33 44 24 67 -23z m-3755 -705 c43 -43
14 -206 -54 -298 -34 -47 -112 -109 -123 -98 -3 2 -5 39 -4 81 1 140 52 289
109 319 36 20 48 20 72 -4z m726 12 c47 -31 42 -159 -10 -261 -32 -61 -127
-151 -161 -151 -16 0 4 187 30 276 28 98 98 165 141 136z m1589 -1619 c-18
-45 -43 -60 -74 -44 -31 17 -44 74 -39 170 5 97 25 152 85 234 l38 52 3 -185
c2 -150 0 -193 -13 -227z m3503 187 c-3 -130 -8 -172 -21 -197 -24 -45 -55
-52 -83 -19 -65 75 -30 282 68 401 l33 40 4 -30 c1 -17 1 -104 -1 -195z"/>
<path d="M12060 8623 c-53 -27 -80 -75 -80 -141 0 -51 3 -57 44 -98 40 -41 47
-44 96 -44 92 0 152 57 152 145 0 113 -115 188 -212 138z"/>
<path d="M14455 7311 c-53 -22 -83 -93 -61 -146 32 -75 124 -100 185 -49 57
48 58 125 1 177 -31 28 -82 35 -125 18z"/>
<path d="M5885 5390 c188 -374 489 -791 799 -1109 378 -387 776 -676 1266
-920 552 -275 1117 -427 1755 -472 203 -14 589 -7 785 16 759 86 1456 339
2084 757 487 324 924 760 1264 1261 77 113 222 358 277 467 l36 71 -126 -3
-126 -3 -75 -135 c-582 -1047 -1580 -1816 -2745 -2114 -1094 -280 -2263 -121
-3249 442 -691 395 -1268 978 -1654 1672 l-75 135 -126 3 -126 3 36 -71z"/>
</g>
</svg>
